<svg id="Capa_1" enable-background="new 0 0 510.417 510.417" height="512" viewBox="0 0 510.417 510.417" width="512" xmlns="http://www.w3.org/2000/svg"><g><g><path d="m455.374 420.75c0-49.442-40.225-89.667-89.667-89.667h-42.506v179.334h42.506c49.442 0 89.667-40.225 89.667-89.667z" fill="#0cbf65"/><g><path d="m323.201 331.083h-30.158l-89.667 20-20 79.882 20 69.958c15.747 6.125 32.86 9.493 50.746 9.493h69.079c5.48-7.637 23.674-36.96 23.674-89.667 0-52.706-18.194-82.029-23.674-89.666z" fill="#0dd16e"/><path d="m113.709 332.78v37.224c0 59.538 37.251 110.533 89.667 130.92v-149.84z" fill="#04eb84"/></g><g><path d="m203.376 250.083-20 55.5 20 55.5c56.117 0 88.525-28.972 89.667-30v-81z" fill="#0bab5a"/><path d="m113.709 250.083v82.697c1.141 1.028 33.549 28.303 89.667 28.303v-111z" fill="#0dd16e"/></g></g><g><path d="m98.511.001-13.416 26.832c18.781 9.391 30.448 28.27 30.448 49.269h30c0-32.436-18.022-61.596-47.032-76.101z" fill="#ea9b58"/><path d="m308.241 0c-29.011 14.505-47.032 43.665-47.032 76.102h30c0-20.999 11.667-39.878 30.448-49.268z" fill="#e38748"/></g><g><path d="m203.376 27.101-10 148.333 10 148.334c81.791 0 148.333-66.542 148.333-148.333 0-81.792-66.542-148.334-148.333-148.334z" fill="#0dd16e"/><path d="m55.043 175.435c0 81.791 66.542 148.333 148.333 148.333v-296.667c-81.791 0-148.333 66.542-148.333 148.334z" fill="#04eb84"/></g><g><g><path d="m120.376 138.101h30v30h-30z" fill="#4e555c"/></g><g><g><path d="m256.376 138.101h30v30h-30z" fill="#292d31"/></g><g><path d="m256.376 138.101h30v30h-30z" fill="#292d31"/></g></g></g><g><path d="m222.73 181.757c-3.987 6.895-11.403 11.177-19.354 11.177l-10 14.909 10 15.091c18.623 0 35.99-10.022 45.322-26.155z" fill="#f3e8e5"/><path d="m184.023 181.757-25.969 15.021c9.332 16.133 26.699 26.155 45.322 26.155v-30c-7.95.001-15.366-4.282-19.353-11.176z" fill="#fff7f7"/></g></g></svg>