<svg id="Capa_1" enable-background="new 0 0 511.94 511.94" height="512" viewBox="0 0 511.94 511.94" width="512" xmlns="http://www.w3.org/2000/svg"><g><g><path d="m305.366 21.213-21.212-21.213-28.184 28.183-10.666 14.424 10.666 28.002z" fill="#0cbf65"/><path d="m227.786 0-21.213 21.213 49.397 49.397v-.001-42.426z" fill="#0dd16e"/></g><g><path d="m91.033 235.546-21.212-21.213 28.183-28.184-28.183-28.183 21.212-21.213 49.397 49.396z" fill="#0dd16e"/></g><g><path d="m420.906 235.546-49.396-49.397 49.396-49.396 21.213 21.213-28.183 28.183 28.183 28.184z" fill="#0cbf65"/></g><g><path d="m403.636 187.274c0-81.423-66.243-147.666-147.666-147.666l-10.667 141.665 10.667 151.827h147.666z" fill="#0dd16e"/><path d="m255.97 39.608c-81.423 0-147.666 66.243-147.666 147.666v145.826h147.666z" fill="#04eb84"/></g><g><path d="m255.97 315.044-10.666 26.229 10.666 42.669 74.456 39.998 94.508-63.347 4.899-45.549z" fill="#ffdc9e"/><path d="m86.802 358.695 94.707 65.244 74.457-39.999.004.002v-68.898h-173.863z" fill="#ffebba"/></g><g><path d="m255.97 394.609-10.667 63.998 10.667 53.333h88.171c36.779 0 67.48-27.576 71.413-64.145l5.5-51.136-90.628 37.948z" fill="#ffdc9e"/><path d="m255.966 394.607-74.457 40-90.796-39.547 5.673 52.736c3.935 36.568 34.636 64.144 71.414 64.144h88.17v-117.331z" fill="#ffebba"/></g><g><path d="m255.97 370.916-21.333 23.691 21.333 10.364 74.456 39.997 90.628-48.309 3.88-36.066-94.508 50.321z" fill="#fd9002"/><path d="m181.509 410.913-94.707-52.218 3.911 36.365 90.796 49.909 74.457-40.001.004.003v-34.055l-.004-.002z" fill="#fdae02"/></g><g><g><path d="m172.97 175.607h30v30h-30z" fill="#7a4a21"/></g><g><path d="m308.971 175.607h30v30h-30z" fill="#5c3819"/></g></g><g><path d="m301.292 234.285-25.969-15.022c-3.988 6.895-11.403 11.177-19.353 11.177l-10.667 14.833 10.667 15.167c18.623 0 35.989-10.022 45.322-26.155z" fill="#f3e8e5"/><path d="m255.97 230.44c-7.95 0-15.365-4.283-19.354-11.177l-25.969 15.022c9.333 16.133 26.699 26.155 45.322 26.155z" fill="#fff7f7"/></g></g></svg>