<svg id="Capa_1" enable-background="new 0 0 512 512" height="512" viewBox="0 0 512 512" width="512" xmlns="http://www.w3.org/2000/svg"><g><g><path d="m271 42.667v-42.667h-15l-10.667 21.333 10.667 21.334z" fill="#fd9002"/><path d="m241 0h15v42.667h-15z" fill="#fdae02"/></g><g><path d="m166.124 265.692c-55.141 17.522-92.188 66.627-92.188 122.188 0 24.19 7.194 46.791 20.804 65.358 9.675 13.198 24.326 20.453 39.848 20.453 5.309 0 10.721-.85 16.07-2.6 21.267-6.96 35.009-25.854 35.009-48.134v-163.475z" fill="#fdae02"/><path d="m345.876 265.692-19.543-6.21v163.477c0 22.28 13.742 41.174 35.01 48.134 5.35 1.751 10.759 2.6 16.069 2.6 15.521 0 30.174-7.256 39.849-20.453 13.609-18.567 20.803-41.168 20.803-65.358 0-55.563-37.047-104.667-92.188-122.19z" fill="#fd9002"/></g><g><path d="m198.333 437.333h30v74.667h-30z" fill="#fdae02"/><path d="m283.667 437.333h30v74.667h-30z" fill="#fd9002"/></g><g><path d="m256 241-10.667 121.667 10.667 111c34.36 0 65.992-10.318 89.069-29.054 24.842-20.168 38.523-49.166 38.523-81.65.001-67.251-57.237-121.963-127.592-121.963z" fill="#f2c200"/><path d="m128.407 362.963c0 32.484 13.681 61.482 38.523 81.65 23.077 18.735 54.71 29.054 89.07 29.054v-232.667c-70.355 0-127.593 54.712-127.593 121.963z" fill="#fdcb02"/></g><g><path d="m451.033 199.107c-.038-94.536-79.308-171.44-176.723-171.44h-18.31l-10.667 153.666 10.667 207c107.509 0 194.992-84.851 195.032-189.159z" fill="#fdcb02"/><path d="m237.691 27.667c-97.318 0-176.525 76.752-176.719 171.164h-.001l-.004.18.001.102v.031c0 .053.002.105.002.158l.001.148h.001c.191 104.179 87.612 188.883 195.028 188.883v-360.666z" fill="#fdd902"/></g><g><g><path d="m140.333 178h30v30h-30z" fill="#7a4a21"/></g><g><path d="m341.667 178h30v30h-30z" fill="#5c3819"/></g></g><g><path d="m323.254 229.024c-12.863-2.858-20.822-7.902-29.248-13.242-9.947-6.304-21.221-13.448-38.006-13.448l-10.667 64.333 10.667 61.001h24.977c23.886 0 43.87-17.131 47.518-40.735l8.474-54.861z" fill="#fd9002"/><path d="m256 202.334c-16.785 0-28.059 7.145-38.005 13.448-8.426 5.34-16.384 10.384-29.248 13.242l-13.714 3.047 8.473 54.862c3.648 23.604 23.632 40.734 47.518 40.734h24.976z" fill="#fdae02"/></g></g></svg>