<svg id="Capa_1" enable-background="new 0 0 512.258 512.258" height="512" viewBox="0 0 512.258 512.258" width="512" xmlns="http://www.w3.org/2000/svg"><g><g><path d="m156.463 444.462v-122.017s-78.942 0-87.876 0c-37.879 0-68.587 30.707-68.587 68.587 0 20.432 8.944 38.765 23.118 51.33-.766 3.765-1.17 7.661-1.17 11.652 0 32.096 26.019 58.115 58.115 58.115h22.4z" fill="#b6ebff"/><path d="m355.796 444.462v-122.017h87.875c37.88 0 68.587 30.707 68.587 68.587 0 20.432-8.944 38.765-23.118 51.33.766 3.765 1.17 7.661 1.17 11.652 0 32.096-26.019 58.115-58.115 58.115h-22.4z" fill="#86ddff"/></g><g><path d="m293.158 26.796h-37.029l-21.333 154.667 21.333 135.755h127.999c54.989 0 99.727-44.737 99.727-99.726-.001-105.15-85.546-190.696-190.697-190.696z" fill="#fdae02"/><path d="m219.101 26.796c-105.15 0-190.696 85.546-190.696 190.696 0 54.989 44.736 99.726 99.726 99.726h127.999v-290.422z" fill="#fdcb02"/></g><g><path d="m409.796 497.129c0-70.58-57.421-128-128-128h-25.6l-5.001 72.666 5.001 70.334h153.6z" fill="#292d31"/><path d="m230.462 369.129c-70.579 0-127.999 57.42-127.999 128v15h153.733v-143z" fill="#4e555c"/></g><g><circle cx="59.071" cy="278.738" fill="#f2cdbe" r="58.942"/><path d="m453.188 219.796c-32.501 0-58.942 26.441-58.942 58.942s26.441 58.942 58.942 58.942c32.5 0 58.941-26.441 58.941-58.942s-26.441-58.942-58.941-58.942z" fill="#efbeaa"/></g><g><path d="m350.328 41.362c-29.011 14.505-47.033 43.665-47.033 76.101h30c0-20.999 11.668-39.877 30.449-49.268z" fill="#ffdc9e"/><path d="m161.931 41.362-13.416 26.833c18.781 9.391 30.448 28.269 30.448 49.268h30c0-32.436-18.022-61.595-47.032-76.101z" fill="#ffebba"/></g><g><circle cx="373.763" cy="46.829" fill="#292d31" r="46.7"/><circle cx="138.496" cy="46.829" fill="#4e555c" r="46.7"/></g><g><path d="m459.376 246.83c-.611-24.119-10.525-47.012-27.913-64.46-17.603-17.664-40.565-27.393-64.656-27.393h-110.678l-21.333 133.153 21.333 163.261c.024 0 .048.001.073.001 112.033 0 203.179-91.595 203.179-204.181z" fill="#f2cdbe"/><path d="m145.447 154.977c-24.091 0-47.053 9.728-64.656 27.393-17.389 17.449-27.302 40.341-27.913 64.461l-.005.38c0 112.561 91.173 204.141 203.256 204.18v-296.414z" fill="#f6decf"/></g><g><g><path d="m156.463 258.129h30v30h-30z" fill="#7a4a21"/></g><g><path d="m325.796 258.129h30v30h-30z" fill="#5c3819"/></g></g><g><path d="m280.104 301.951c-4.94 8.54-14.128 13.845-23.975 13.845l-10.667 15 10.667 15c20.52 0 39.658-11.044 49.942-28.822z" fill="#f3e8e5"/><path d="m256.129 315.796c-9.848 0-19.034-5.305-23.974-13.844l-25.969 15.021c10.284 17.779 29.421 28.823 49.942 28.823z" fill="#fff7f7"/></g></g></svg>