<?xml version="1.0"?>
<svg xmlns="http://www.w3.org/2000/svg" xmlns:xlink="http://www.w3.org/1999/xlink" xmlns:svgjs="http://svgjs.com/svgjs" version="1.1" width="512" height="512" x="0" y="0" viewBox="0 0 682.66669 682" style="enable-background:new 0 0 512 512" xml:space="preserve" class=""><g><path xmlns="http://www.w3.org/2000/svg" d="m510.429688-1.25h-460.46875c-27.554688 0-49.960938 22.417969-49.960938 49.960938v281.796874c0 27.554688 22.40625 49.960938 49.960938 49.960938h37.039062v93.730469l134.695312-93.730469h288.734376c27.539062 0 49.945312-22.40625 49.945312-49.960938v-281.796874c0-27.542969-22.40625-49.960938-49.945312-49.960938zm-286.558594 209.414062h-37.328125v-37.34375h37.328125zm74.980468 0h-37.328124v-37.34375h37.328124zm74.980469.835938h-37.324219v-37.339844h37.324219zm0 0" fill="#999999" data-original="#000000" style="" class=""/><path xmlns="http://www.w3.org/2000/svg" d="m597.875 83.507812v247c0 48.222657-39.234375 87.453126-87.449219 87.453126h-276.964843l-85.613282 59.574218c3.558594.496094 7.183594.78125 10.878906.78125h241.335938l163.886719 114.042969v-114.085937c42.183593-1.457032 76.050781-36.222657 76.050781-78.757813v-246.308594c0-30.214843-17.101562-56.488281-42.125-69.699219zm0 0" fill="#999999" data-original="#000000" style="" class=""/></g></svg>
