<svg id="Capa_1" enable-background="new 0 0 512 512" height="512" viewBox="0 0 512 512" width="512" xmlns="http://www.w3.org/2000/svg"><g><path d="m239.486 142.183s-28.302-1.857-55.962-1.857c-78.177 0-146.081 52.089-152.206 130.025-4.712 59.95 40.068 112.369 100.018 117.08 46.115 3.625 160.47-30.89 160.47-30.89z" fill="#fd9002"/><g><path d="m468.366 116.477c-3.397-3.28-6.936-6.378-10.601-9.292 4.484-14.034 14.49-25.899 27.831-32.57l-13.416-26.832c-18.229 9.114-32.449 24.5-40.283 42.936-19.719-9.829-41.688-15.271-64.582-15.794l-10 175.202 10 192.982c26.905-12.023 51.66-28.994 73.122-50.456 46.148-46.148 71.563-107.506 71.563-172.769 0-39.517-15.496-76.24-43.634-103.407z" fill="#eb8"/><path d="m301.729 88.45c-8.013-17.428-21.804-31.93-39.28-40.667l-13.416 26.832c12.276 6.138 21.725 16.678 26.653 29.254-36.583 27.04-60.352 70.467-60.352 119.347 0 18.643 3.342 37.157 10.35 54.511 0 0-2.666 37.478-20.017 65.875s-44.53 43.945-77.433 43.945c-27.61 0-52.317-12.413-68.858-31.958-5.63 2.261-16.999 7.694-28.399 18.253-14.132 13.09-30.977 36.791-30.977 75.375v15h267.667c34.911 0 68.702-7.279 99.648-21.107v-368.185c-25.529 0-46.726 4.823-65.586 13.525z" fill="#f2d1a5"/></g><path d="m158.106 228.02c-17.191-1.354-33.879 4.072-46.99 15.273s-21.076 26.837-22.427 44.028l29.908 2.35c.723-9.202 4.986-17.572 12.005-23.567 7.018-5.995 15.952-8.9 25.154-8.176 13.162 1.034 25.133 7.132 33.708 17.17s12.728 22.815 11.694 35.977c-1.439 18.309-9.922 34.961-23.885 46.891-13.964 11.927-31.734 17.699-50.046 16.267-51.608-4.056-90.295-49.343-86.239-100.951 2.648-33.699 18.261-64.35 43.963-86.306s58.41-32.595 92.114-29.94c17.785 1.397 34.073 5.367 48.586 11.816 3.714-9.396 8.369-18.32 13.835-26.668-18.053-8.277-38.197-13.338-60.071-15.057-41.683-3.274-82.156 9.876-113.951 37.038-31.794 27.161-51.108 65.078-54.384 106.766-5.352 68.099 45.697 127.857 113.797 133.209 2.642.207 5.275.311 7.896.311 23.474-.001 45.944-8.264 63.986-23.676 20.057-17.134 32.24-41.053 34.307-67.35 1.662-21.15-5.011-41.683-18.791-57.813-13.781-16.131-33.019-25.93-54.169-27.592z" fill="#fdae02"/><g><path d="m386.668 229.539c-3.987 6.895-11.403 11.177-19.353 11.177l-5 14.412 5 15.588c18.624 0 35.991-10.022 45.322-26.155z" fill="#f3e8e5"/><path d="m347.961 229.539-25.969 15.021c9.332 16.133 26.698 26.155 45.322 26.155v-30c-7.95.001-15.366-4.281-19.353-11.176z" fill="#fff7f7"/></g><g><g><path d="m284.314 185.883h30v30h-30z" fill="#7a4a21"/></g><g><path d="m420.315 185.883h30v30h-30z" fill="#5c3819"/></g></g></g></svg>