<svg id="Capa_1" enable-background="new 0 0 512 512" height="512" viewBox="0 0 512 512" width="512" xmlns="http://www.w3.org/2000/svg"><g><g><circle cx="122.667" cy="73.667" fill="#a16633" r="73.667"/><ellipse cx="389.333" cy="73.667" fill="#825229" rx="73.667" ry="73.667" transform="matrix(.974 -.227 .227 .974 -6.553 90.434)"/></g><g><path d="m290.267 32h-34.27l-20 96.339 20 174.661h118.456c51.505 0 93.407-41.902 93.407-93.407 0-97.925-79.668-177.593-177.593-177.593z" fill="#a16633"/><path d="m221.732 32c-97.924 0-177.592 79.668-177.592 177.593 0 51.505 41.902 93.407 93.407 93.407h118.45v-271z" fill="#c48958"/></g><g><path d="m409.666 497c0-70.58-57.421-128-128-128h-25.6l-5.001 72.666 5.002 70.334h153.6v-15z" fill="#a16633"/><path d="m230.332 369c-70.579 0-127.999 57.42-127.999 128v15h153.733v-143z" fill="#c48958"/></g><g><circle cx="73.391" cy="297.391" fill="#f2cdbe" r="58.942"/><ellipse cx="438.609" cy="297.391" fill="#efbeaa" rx="58.942" ry="58.942" transform="matrix(.974 -.227 .227 .974 -56.118 107.485)"/></g><path d="m256 277.334v42.666" fill="#fff"/><g><path d="m340.17 145c-32.8 0-63.398 14.461-84.173 38.834l-10 127.666 10 139.761c.024 0 .048.001.072.001 107.359 0 194.703-87.773 194.703-195.661 0-60.985-49.616-110.601-110.602-110.601z" fill="#f2cdbe"/><path d="m255.997 183.834c-20.774-24.373-51.372-38.834-84.173-38.834-60.986 0-110.602 49.616-110.602 110.602 0 107.863 87.369 195.62 194.775 195.66z" fill="#f6decf"/></g><g><path d="m294.016 308.436c-2.58 4.46-7.376 7.23-12.516 7.23-4.007 0-7.798-1.689-10.5-4.542v-33.791h-15l-10 29.667 10 30.572c7.37 5.163 16.246 8.095 25.5 8.095 15.813 0 30.559-8.509 38.484-22.207z" fill="#ea9b58"/><path d="m241 277.333v33.79c-2.702 2.854-6.494 4.543-10.5 4.543-5.141 0-9.936-2.77-12.516-7.229l-25.968 15.021c7.924 13.698 22.67 22.208 38.484 22.208 9.254 0 18.13-2.932 25.5-8.095v-60.238z" fill="#eaab65"/></g><g><path d="m156.333 245.333h30v30h-30z" fill="#7a4a21"/><path d="m325.667 245.333h30v30h-30z" fill="#5c3819"/></g></g></svg>